<?xml version="1.0" standalone="no"?>
<!DOCTYPE svg PUBLIC "-//W3C//DTD SVG 20010904//EN"
 "http://www.w3.org/TR/2001/REC-SVG-20010904/DTD/svg10.dtd">
<svg version="1.0" xmlns="http://www.w3.org/2000/svg"
 width="782.000000pt" height="782.000000pt" viewBox="0 0 782.000000 782.000000"
 preserveAspectRatio="xMidYMid meet">

<g transform="translate(0.000000,782.000000) scale(0.100000,-0.100000)"
fill="#000000" stroke="none">
<path d="M0 3910 l0 -3910 3910 0 3910 0 0 3910 0 3910 -3910 0 -3910 0 0
-3910z m4083 2516 c84 -23 198 -82 267 -138 175 -142 270 -345 270 -580 l0
-108 181 0 181 0 171 94 c135 73 612 329 756 406 l24 12 -6 -81 c-8 -107 -31
-192 -74 -274 -64 -121 -138 -171 -403 -272 -353 -134 -437 -168 -576 -229
l-151 -67 -91 -114 c-51 -63 -92 -117 -92 -120 0 -2 26 7 58 21 58 26 388 171
567 249 55 24 169 73 253 108 175 75 167 78 133 -56 -36 -140 -94 -225 -188
-274 -62 -33 -116 -51 -434 -142 -253 -73 -432 -138 -566 -203 -96 -48 -105
-55 -170 -136 -78 -98 -97 -126 -67 -101 29 25 89 53 189 89 224 80 931 320
943 320 10 0 12 -9 7 -32 -23 -119 -91 -214 -180 -253 -27 -13 -135 -41 -240
-65 -536 -118 -796 -206 -916 -308 l-40 -34 -22 28 c-38 49 -53 60 -120 92
-146 69 -367 133 -772 222 -244 55 -294 77 -358 161 -43 57 -82 189 -55 189
15 0 768 -256 941 -320 l128 -48 -27 37 c-52 69 -109 136 -124 146 -83 54
-331 142 -675 241 -365 105 -427 139 -494 272 -24 46 -61 180 -61 217 0 25 34
12 670 -266 162 -70 295 -127 296 -126 2 1 -38 53 -87 114 -75 95 -98 117
-146 141 -79 40 -265 115 -533 217 -288 110 -357 144 -415 206 -83 89 -151
281 -143 402 l3 46 280 -150 c154 -83 366 -197 472 -255 l192 -104 159 0 160
0 4 133 c4 107 10 147 31 212 37 112 90 198 177 285 108 109 220 172 365 205
77 18 269 13 348 -9z m-357 -2898 c90 -44 144 -166 144 -322 l0 -66 -115 0
-115 0 0 73 c0 39 -6 83 -13 97 -17 34 -66 39 -93 9 -18 -20 -19 -38 -19 -374
0 -333 1 -354 19 -374 11 -12 29 -21 40 -21 52 1 66 36 66 169 l0 111 -30 0
-30 0 0 105 0 105 145 0 145 0 0 -350 0 -350 -49 0 c-48 0 -48 0 -65 45 -10
25 -20 45 -23 45 -3 0 -14 -11 -25 -25 -37 -47 -95 -70 -178 -70 -90 0 -148
27 -192 90 -53 76 -60 130 -65 470 -5 353 2 440 44 523 52 104 135 145 279
138 60 -3 94 -10 130 -28z m741 -10 c59 -39 83 -96 92 -214 12 -174 -11 -276
-70 -311 -35 -21 -36 -27 -4 -41 13 -6 32 -26 42 -44 16 -29 18 -66 21 -300
l3 -268 -120 0 -121 0 0 259 c0 257 0 260 -22 275 -12 9 -33 16 -45 16 l-23 0
0 -275 0 -275 -125 0 -125 0 0 606 0 605 228 -3 229 -3 40 -27z"/>
<path d="M3800 6230 c-247 -43 -430 -263 -430 -515 0 -355 352 -609 686 -495
249 86 396 344 343 602 -56 270 -327 455 -599 408z"/>
<path d="M4220 3215 l0 -115 41 0 c36 0 41 3 55 35 19 46 18 144 -2 173 -11
16 -25 22 -55 22 l-39 0 0 -115z"/>
</g>
</svg>
